<?xml version="1.0" encoding="iso-8859-1"?>
<!-- Generator: Adobe Illustrator 16.0.0, SVG Export Plug-In . SVG Version: 6.00 Build 0)  -->
<!DOCTYPE svg PUBLIC "-//W3C//DTD SVG 1.1//EN" "http://www.w3.org/Graphics/SVG/1.1/DTD/svg11.dtd">
<svg xmlns="http://www.w3.org/2000/svg" xmlns:xlink="http://www.w3.org/1999/xlink" version="1.1" id="Capa_1" x="0px" y="0px" width="512px" height="512px" viewBox="0 0 380.72 380.721" style="enable-background:new 0 0 380.72 380.721;" xml:space="preserve">
<g>
	<g>
		<path d="M368.951,55.653c-17.021-28.326-50.297-44.593-91.299-44.593c-29.314,0-55.561,12.874-77.078,29.163    c-19.188-21.25-56.252-40.642-95.843-39.597C79.169,1.284,42.908,10.753,15.308,52.145C1.116,73.465-3.242,95.999,2.376,119.091    c10.62,43.709,55.084,76.189,73.773,88.168v156.12c0,8.83,7.163,15.976,15.981,15.976h14.785V192.597    c-1.331-3.439-3.712-6.437-7.029-8.284c-0.558-0.308-56.594-31.945-66.482-72.826c-3.439-14.239-0.656-27.862,8.505-41.601    c16.062-24.085,37.464-36.634,63.653-37.313c28.518-0.668,57.286,13.53,71.1,28.779c-21.785,22.035-34.943,43.367-36.053,45.214    c-4.566,7.529-2.172,17.347,5.368,21.924s17.358,2.202,21.953-5.345c0.482-0.796,49.548-80.105,109.733-80.105    c29.499,0,52.795,10.614,63.902,29.093c11.072,18.439,9.225,43.541-5.217,70.717c-8.726,16.429-26.897,27.623-48.775,35.169    v201.346h15.848c8.83,0,15.977-7.146,15.977-15.976V199.057c19.275-9.672,35.494-22.999,45.185-41.217    C384.474,120.387,386.031,84.09,368.951,55.653z" fill="#FFFFFF"/>
		<path d="M268.775,303.729c0.012-5.508-0.151-137.414-0.151-137.414l-6.32-0.041c0,0-21.263,13.873-21.251,116.646    c18.869,5.182,10.922,25.793,9.493,28.407c0,5.239,0.406,58.976,0.406,58.976l0.047-0.011c-0.012,0.046-0.035,0.104-0.023,0.175    c-0.023,4.938,3.974,8.934,8.899,8.899c4.903,0.022,8.924-3.997,8.912-8.911c0.012-0.047,0.012-0.117-0.012-0.152l0.023-0.022    C268.787,370.281,268.787,309.748,268.775,303.729z" fill="#FFFFFF"/>
		<path d="M230.039,165.542l-5.473-0.017l1.639,57.338l-6.576-0.011v-57.327l-4.811,0.017v57.681h-5.449v-57.681h-5.31v57.681    h-6.448l1.836-57.698h-4.996l-6.071,48.798c0,0-0.157,1.848-0.157,2.557c0,7.518,3.486,14.232,8.953,18.613    c17.979,20.297,5.698,40.99,5.698,45.905c0.012,5.46,0.012,89.255,0.012,89.255h0.012c0,0.058-0.023,0.115-0.023,0.197    c0,5.123,4.171,9.283,9.307,9.283c5.124,0,9.307-4.183,9.307-9.283c0-0.082-0.035-0.14-0.035-0.186h0.023    c0,0,0.012-82.76,0.012-89.081c-0.012-5.692-10.398-29.511,6.937-47.218c0.012-0.023,0.047-0.082,0.081-0.105    c4.229-3.996,7.018-9.538,7.448-15.73c0.022-0.441,0.011-1.546,0.011-1.546L230.039,165.542z" fill="#FFFFFF"/>
		<path d="M182.489,201.566c0-20.49-11.102-39.323-30.778-39.643c0-0.012,0-0.012,0-0.012c-0.082,0-0.418,0-0.5,0c0,0,0,0,0,0.012    c-19.677,0.32-30.778,19.153-30.778,39.643c0,20.646,12.421,35.402,23.261,38.667c5.926,8.307,2.01,27.967-2.179,39.295    c-0.011,5.414,0,88.452,0,88.452h0.012c0,0.058-0.023,0.14-0.012,0.198c0,5.076,4.119,9.189,9.196,9.189c0.262,0,1.237,0,1.487,0    c5.095,0,9.208-4.124,9.22-9.178c0-0.07-0.012-0.152-0.023-0.21h0.012c0,0,0-83.026,0-88.452    c-4.188-11.328-8.087-30.988-2.179-39.295C170.068,236.969,182.489,222.213,182.489,201.566z M143.956,232.298    c-0.122-0.035-0.761-0.256-1.714-0.802c-0.227-0.151-0.477-0.313-0.715-0.487l-0.395-0.303c-1.127-0.848-2.673-2.021-4.171-3.695    c-4.741-5.042-7.842-9.992-9.399-15.127c-0.442-1.777-0.657-3.346-0.703-5.17c0-1.58,0.105-3.137,0.32-4.834    c0.488-3.23,1.371-6.123,2.108-8.272c0.843-2.463,1.999-4.427,2.783-5.652c0.964-1.417,1.615-2.382,1.615-2.382    c0.314-0.413,0.929-0.546,1.429-0.25c0.522,0.337,0.761,0.859,0.598,1.348c-0.017,0.023-0.517,1.249-0.883,2.567    c-0.488,1.238-0.796,2.998-1.202,5.368c-0.354,2.068-0.593,4.648-0.68,7.657c-0.058,1.302-0.035,2.695,0.063,4.147    c0.059,1.267,0.297,2.754,0.628,3.916c1.702,5.332,4.798,10.526,7.058,14.303c0.465,0.731,0.935,1.463,1.354,2.126    c0.581,0.94,1.098,1.767,1.557,2.347c0.691,0.953,1.237,1.453,1.237,1.464c0.395,0.349,0.5,0.872,0.291,1.278    C144.943,232.216,144.443,232.437,143.956,232.298z" fill="#FFFFFF"/>
	</g>
</g>
<g>
</g>
<g>
</g>
<g>
</g>
<g>
</g>
<g>
</g>
<g>
</g>
<g>
</g>
<g>
</g>
<g>
</g>
<g>
</g>
<g>
</g>
<g>
</g>
<g>
</g>
<g>
</g>
<g>
</g>
</svg>
